<mxfile host="Electron" modified="2024-07-31T18:04:52.947Z" agent="Mozilla/5.0 (Macintosh; Intel Mac OS X 10_15_7) AppleWebKit/537.36 (KHTML, like Gecko) draw.io/24.5.3 Chrome/124.0.6367.207 Electron/30.0.6 Safari/537.36" etag="phjeoPSj8ciCcYoHGV9Y" version="24.5.3" type="device">
  <diagram id="kgpKYQtTHZ0yAKxKKP6v" name="Page-1">
    <mxGraphModel dx="6170" dy="2640" grid="1" gridSize="10" guides="1" tooltips="1" connect="1" arrows="1" fold="1" page="1" pageScale="1" pageWidth="850" pageHeight="1100" math="0" shadow="0">
      <root>
        <mxCell id="0" />
        <mxCell id="1" parent="0" />
        <mxCell id="jRCGO-97fmJay-VYD4Cs-6" style="edgeStyle=orthogonalEdgeStyle;rounded=0;orthogonalLoop=1;jettySize=auto;html=1;entryX=0.5;entryY=0;entryDx=0;entryDy=0;dashed=1;dashPattern=8 8;" parent="1" source="jRCGO-97fmJay-VYD4Cs-1" target="jRCGO-97fmJay-VYD4Cs-3" edge="1">
          <mxGeometry relative="1" as="geometry" />
        </mxCell>
        <mxCell id="jRCGO-97fmJay-VYD4Cs-1" value="GitHub API" style="verticalLabelPosition=middle;verticalAlign=middle;html=1;shape=card;whiteSpace=wrap;size=20;arcSize=12;spacing=0;spacingBottom=0;labelPosition=center;align=center;" parent="1" vertex="1">
          <mxGeometry x="40" y="40" width="95" height="40" as="geometry" />
        </mxCell>
        <mxCell id="jRCGO-97fmJay-VYD4Cs-9" style="edgeStyle=orthogonalEdgeStyle;rounded=0;orthogonalLoop=1;jettySize=auto;html=1;entryX=0;entryY=0.5;entryDx=0;entryDy=0;" parent="1" source="jRCGO-97fmJay-VYD4Cs-3" target="jRCGO-97fmJay-VYD4Cs-8" edge="1">
          <mxGeometry relative="1" as="geometry" />
        </mxCell>
        <mxCell id="jRCGO-97fmJay-VYD4Cs-3" value="Retrieve initial repositories" style="rounded=0;whiteSpace=wrap;html=1;" parent="1" vertex="1">
          <mxGeometry x="40" y="110" width="95" height="40" as="geometry" />
        </mxCell>
        <mxCell id="jRCGO-97fmJay-VYD4Cs-7" value="GH Archive" style="verticalLabelPosition=middle;verticalAlign=middle;html=1;shape=card;whiteSpace=wrap;size=20;arcSize=12;spacing=0;spacingBottom=0;labelPosition=center;align=center;spacingLeft=3;" parent="1" vertex="1">
          <mxGeometry x="160" y="40" width="60" height="40" as="geometry" />
        </mxCell>
        <mxCell id="jRCGO-97fmJay-VYD4Cs-53" style="edgeStyle=orthogonalEdgeStyle;rounded=0;orthogonalLoop=1;jettySize=auto;html=1;" parent="1" source="jRCGO-97fmJay-VYD4Cs-8" target="jRCGO-97fmJay-VYD4Cs-50" edge="1">
          <mxGeometry relative="1" as="geometry" />
        </mxCell>
        <mxCell id="jRCGO-97fmJay-VYD4Cs-8" value="Retrieve timeline events and README files" style="rounded=0;whiteSpace=wrap;html=1;" parent="1" vertex="1">
          <mxGeometry x="160" y="110" width="140" height="40" as="geometry" />
        </mxCell>
        <mxCell id="jRCGO-97fmJay-VYD4Cs-57" style="edgeStyle=orthogonalEdgeStyle;rounded=0;orthogonalLoop=1;jettySize=auto;html=1;" parent="1" source="jRCGO-97fmJay-VYD4Cs-18" target="jRCGO-97fmJay-VYD4Cs-56" edge="1">
          <mxGeometry relative="1" as="geometry" />
        </mxCell>
        <mxCell id="jRCGO-97fmJay-VYD4Cs-18" value="Retrieve commits, issues and contributors" style="rounded=0;whiteSpace=wrap;html=1;" parent="1" vertex="1">
          <mxGeometry x="450" y="110" width="170" height="40" as="geometry" />
        </mxCell>
        <mxCell id="jRCGO-97fmJay-VYD4Cs-20" style="edgeStyle=orthogonalEdgeStyle;rounded=0;orthogonalLoop=1;jettySize=auto;html=1;dashed=1;dashPattern=8 8;" parent="1" source="jRCGO-97fmJay-VYD4Cs-19" target="jRCGO-97fmJay-VYD4Cs-18" edge="1">
          <mxGeometry relative="1" as="geometry" />
        </mxCell>
        <mxCell id="jRCGO-97fmJay-VYD4Cs-19" value="GitHub API" style="verticalLabelPosition=middle;verticalAlign=middle;html=1;shape=card;whiteSpace=wrap;size=20;arcSize=12;spacing=0;spacingBottom=0;labelPosition=center;align=center;" parent="1" vertex="1">
          <mxGeometry x="450" y="40" width="170" height="40" as="geometry" />
        </mxCell>
        <mxCell id="jRCGO-97fmJay-VYD4Cs-39" style="edgeStyle=orthogonalEdgeStyle;rounded=0;orthogonalLoop=1;jettySize=auto;html=1;entryX=0;entryY=0.5;entryDx=0;entryDy=0;" parent="1" source="jRCGO-97fmJay-VYD4Cs-21" target="jRCGO-97fmJay-VYD4Cs-33" edge="1">
          <mxGeometry relative="1" as="geometry" />
        </mxCell>
        <mxCell id="jRCGO-97fmJay-VYD4Cs-21" value="Clone repositories" style="rounded=0;whiteSpace=wrap;html=1;" parent="1" vertex="1">
          <mxGeometry x="60" y="280" width="95" height="40" as="geometry" />
        </mxCell>
        <mxCell id="jRCGO-97fmJay-VYD4Cs-23" style="edgeStyle=orthogonalEdgeStyle;rounded=0;orthogonalLoop=1;jettySize=auto;html=1;dashed=1;dashPattern=8 8;" parent="1" source="jRCGO-97fmJay-VYD4Cs-22" target="jRCGO-97fmJay-VYD4Cs-21" edge="1">
          <mxGeometry relative="1" as="geometry" />
        </mxCell>
        <mxCell id="jRCGO-97fmJay-VYD4Cs-22" value="GitHub" style="verticalLabelPosition=middle;verticalAlign=middle;html=1;shape=card;whiteSpace=wrap;size=20;arcSize=12;spacing=0;spacingBottom=0;labelPosition=center;align=center;" parent="1" vertex="1">
          <mxGeometry x="60" y="210" width="95" height="40" as="geometry" />
        </mxCell>
        <mxCell id="jRCGO-97fmJay-VYD4Cs-29" style="edgeStyle=orthogonalEdgeStyle;rounded=0;orthogonalLoop=1;jettySize=auto;html=1;exitX=0.5;exitY=0;exitDx=0;exitDy=0;entryX=0;entryY=0.5;entryDx=0;entryDy=0;" parent="1" target="jRCGO-97fmJay-VYD4Cs-21" edge="1">
          <mxGeometry relative="1" as="geometry">
            <mxPoint x="735" y="129.98000000000002" as="sourcePoint" />
            <mxPoint x="50" y="299.9851813471503" as="targetPoint" />
            <Array as="points">
              <mxPoint x="760" y="130" />
              <mxPoint x="760" y="180" />
              <mxPoint x="20" y="180" />
              <mxPoint x="20" y="300" />
            </Array>
          </mxGeometry>
        </mxCell>
        <mxCell id="jRCGO-97fmJay-VYD4Cs-58" style="edgeStyle=orthogonalEdgeStyle;rounded=0;orthogonalLoop=1;jettySize=auto;html=1;" parent="1" source="jRCGO-97fmJay-VYD4Cs-33" target="jRCGO-97fmJay-VYD4Cs-46" edge="1">
          <mxGeometry relative="1" as="geometry" />
        </mxCell>
        <mxCell id="jRCGO-97fmJay-VYD4Cs-59" style="edgeStyle=orthogonalEdgeStyle;rounded=0;orthogonalLoop=1;jettySize=auto;html=1;" parent="1" source="jRCGO-97fmJay-VYD4Cs-33" target="jRCGO-97fmJay-VYD4Cs-47" edge="1">
          <mxGeometry relative="1" as="geometry" />
        </mxCell>
        <mxCell id="jRCGO-97fmJay-VYD4Cs-33" value="Extract FaaS characteristics&amp;nbsp;" style="rounded=0;whiteSpace=wrap;html=1;" parent="1" vertex="1">
          <mxGeometry x="190" y="280" width="110" height="40" as="geometry" />
        </mxCell>
        <mxCell id="jRCGO-97fmJay-VYD4Cs-80" style="edgeStyle=orthogonalEdgeStyle;rounded=0;orthogonalLoop=1;jettySize=auto;html=1;entryX=0;entryY=0.5;entryDx=0;entryDy=0;" parent="1" source="jRCGO-97fmJay-VYD4Cs-46" target="jRCGO-97fmJay-VYD4Cs-416" edge="1">
          <mxGeometry relative="1" as="geometry">
            <mxPoint x="500" y="260" as="targetPoint" />
          </mxGeometry>
        </mxCell>
        <mxCell id="jRCGO-97fmJay-VYD4Cs-46" value="FaaS repositories" style="strokeWidth=1;html=1;shape=mxgraph.flowchart.multi-document;whiteSpace=wrap;spacingRight=10;" parent="1" vertex="1">
          <mxGeometry x="370" y="230" width="88" height="60" as="geometry" />
        </mxCell>
        <mxCell id="jRCGO-97fmJay-VYD4Cs-78" style="edgeStyle=orthogonalEdgeStyle;rounded=0;orthogonalLoop=1;jettySize=auto;html=1;entryX=1;entryY=0.5;entryDx=0;entryDy=0;" parent="1" source="jRCGO-97fmJay-VYD4Cs-47" target="jRCGO-97fmJay-VYD4Cs-62" edge="1">
          <mxGeometry relative="1" as="geometry">
            <Array as="points">
              <mxPoint x="410" y="390" />
            </Array>
          </mxGeometry>
        </mxCell>
        <mxCell id="jRCGO-97fmJay-VYD4Cs-47" value="Non FaaS repositories" style="strokeWidth=1;html=1;shape=mxgraph.flowchart.multi-document;whiteSpace=wrap;flipH=1;flipV=1;direction=west;spacingRight=10;" parent="1" vertex="1">
          <mxGeometry x="370" y="310" width="88" height="60" as="geometry" />
        </mxCell>
        <mxCell id="jRCGO-97fmJay-VYD4Cs-55" style="edgeStyle=orthogonalEdgeStyle;rounded=0;orthogonalLoop=1;jettySize=auto;html=1;" parent="1" source="jRCGO-97fmJay-VYD4Cs-50" target="jRCGO-97fmJay-VYD4Cs-18" edge="1">
          <mxGeometry relative="1" as="geometry" />
        </mxCell>
        <mxCell id="jRCGO-97fmJay-VYD4Cs-50" value="Filter relevant repositories" style="verticalLabelPosition=middle;verticalAlign=middle;html=1;shape=trapezoid;perimeter=trapezoidPerimeter;whiteSpace=wrap;size=0.23;arcSize=10;flipV=1;labelPosition=center;align=center;direction=south;" parent="1" vertex="1">
          <mxGeometry x="330" y="99.99" width="90" height="60" as="geometry" />
        </mxCell>
        <mxCell id="jRCGO-97fmJay-VYD4Cs-56" value="Refine filtering" style="verticalLabelPosition=middle;verticalAlign=middle;html=1;shape=trapezoid;perimeter=trapezoidPerimeter;whiteSpace=wrap;size=0.23;arcSize=10;flipV=1;labelPosition=center;align=center;direction=south;" parent="1" vertex="1">
          <mxGeometry x="645" y="100" width="90" height="60" as="geometry" />
        </mxCell>
        <mxCell id="jRCGO-97fmJay-VYD4Cs-72" style="edgeStyle=orthogonalEdgeStyle;rounded=0;orthogonalLoop=1;jettySize=auto;html=1;entryX=0.5;entryY=1;entryDx=0;entryDy=0;" parent="1" source="jRCGO-97fmJay-VYD4Cs-62" target="jRCGO-97fmJay-VYD4Cs-33" edge="1">
          <mxGeometry relative="1" as="geometry" />
        </mxCell>
        <mxCell id="jRCGO-97fmJay-VYD4Cs-62" value="Add Extractors" style="rounded=0;whiteSpace=wrap;html=1;" parent="1" vertex="1">
          <mxGeometry x="190" y="370" width="110" height="40" as="geometry" />
        </mxCell>
        <mxCell id="jRCGO-97fmJay-VYD4Cs-68" style="edgeStyle=orthogonalEdgeStyle;rounded=0;orthogonalLoop=1;jettySize=auto;html=1;entryX=0.214;entryY=0;entryDx=0;entryDy=0;entryPerimeter=0;dashed=1;dashPattern=8 8;" parent="1" source="jRCGO-97fmJay-VYD4Cs-7" target="jRCGO-97fmJay-VYD4Cs-8" edge="1">
          <mxGeometry relative="1" as="geometry" />
        </mxCell>
        <mxCell id="jRCGO-97fmJay-VYD4Cs-69" value="GitHub" style="verticalLabelPosition=middle;verticalAlign=middle;html=1;shape=card;whiteSpace=wrap;size=20;arcSize=12;spacing=0;spacingBottom=0;labelPosition=center;align=center;spacingLeft=3;" parent="1" vertex="1">
          <mxGeometry x="240" y="40" width="60" height="40" as="geometry" />
        </mxCell>
        <mxCell id="jRCGO-97fmJay-VYD4Cs-71" style="edgeStyle=orthogonalEdgeStyle;rounded=0;orthogonalLoop=1;jettySize=auto;html=1;entryX=0.786;entryY=0;entryDx=0;entryDy=0;entryPerimeter=0;dashed=1;dashPattern=8 8;" parent="1" source="jRCGO-97fmJay-VYD4Cs-69" target="jRCGO-97fmJay-VYD4Cs-8" edge="1">
          <mxGeometry relative="1" as="geometry" />
        </mxCell>
        <mxCell id="jRCGO-97fmJay-VYD4Cs-77" style="edgeStyle=orthogonalEdgeStyle;rounded=0;orthogonalLoop=1;jettySize=auto;html=1;entryX=0.5;entryY=0;entryDx=0;entryDy=0;dashed=1;dashPattern=8 8;" parent="1" source="jRCGO-97fmJay-VYD4Cs-76" target="jRCGO-97fmJay-VYD4Cs-33" edge="1">
          <mxGeometry relative="1" as="geometry" />
        </mxCell>
        <mxCell id="jRCGO-97fmJay-VYD4Cs-76" value="Extractors" style="verticalLabelPosition=middle;verticalAlign=middle;html=1;shape=card;whiteSpace=wrap;size=20;arcSize=12;spacing=0;spacingBottom=0;labelPosition=center;align=center;spacingLeft=5;spacingRight=5;" parent="1" vertex="1">
          <mxGeometry x="190" y="210" width="110" height="40" as="geometry" />
        </mxCell>
        <mxCell id="jRCGO-97fmJay-VYD4Cs-90" value="Final FaaS repositories" style="strokeWidth=1;html=1;shape=mxgraph.flowchart.multi-document;whiteSpace=wrap;spacingRight=10;" parent="1" vertex="1">
          <mxGeometry x="630" y="230" width="88" height="60" as="geometry" />
        </mxCell>
        <mxCell id="jRCGO-97fmJay-VYD4Cs-91" style="edgeStyle=orthogonalEdgeStyle;rounded=0;orthogonalLoop=1;jettySize=auto;html=1;entryX=0;entryY=0.5;entryDx=0;entryDy=0;entryPerimeter=0;exitX=1;exitY=0.5;exitDx=0;exitDy=0;" parent="1" source="jRCGO-97fmJay-VYD4Cs-416" target="jRCGO-97fmJay-VYD4Cs-90" edge="1">
          <mxGeometry relative="1" as="geometry">
            <mxPoint x="590" y="260" as="sourcePoint" />
          </mxGeometry>
        </mxCell>
        <mxCell id="jRCGO-97fmJay-VYD4Cs-93" style="edgeStyle=orthogonalEdgeStyle;rounded=0;orthogonalLoop=1;jettySize=auto;html=1;dashed=1;dashPattern=8 8;" parent="1" source="jRCGO-97fmJay-VYD4Cs-92" target="jRCGO-97fmJay-VYD4Cs-62" edge="1">
          <mxGeometry relative="1" as="geometry" />
        </mxCell>
        <mxCell id="jRCGO-97fmJay-VYD4Cs-92" value="" style="shape=actor;whiteSpace=wrap;html=1;" parent="1" vertex="1">
          <mxGeometry x="130" y="370" width="30" height="40" as="geometry" />
        </mxCell>
        <mxCell id="jRCGO-97fmJay-VYD4Cs-96" style="edgeStyle=orthogonalEdgeStyle;rounded=0;orthogonalLoop=1;jettySize=auto;html=1;entryX=1;entryY=0.5;entryDx=0;entryDy=0;dashed=1;dashPattern=8 8;" parent="1" source="jRCGO-97fmJay-VYD4Cs-95" edge="1">
          <mxGeometry relative="1" as="geometry">
            <mxPoint x="545" y="283.1" as="targetPoint" />
          </mxGeometry>
        </mxCell>
        <mxCell id="jRCGO-97fmJay-VYD4Cs-95" value="" style="shape=actor;whiteSpace=wrap;html=1;" parent="1" vertex="1">
          <mxGeometry x="530" y="320" width="30" height="40" as="geometry" />
        </mxCell>
        <mxCell id="jRCGO-97fmJay-VYD4Cs-99" value="IaaS" style="rounded=0;whiteSpace=wrap;html=1;" parent="1" vertex="1">
          <mxGeometry x="50" y="1010" width="103.33" height="40" as="geometry" />
        </mxCell>
        <mxCell id="jRCGO-97fmJay-VYD4Cs-100" value="PaaS" style="rounded=0;whiteSpace=wrap;html=1;" parent="1" vertex="1">
          <mxGeometry x="179.16666666666669" y="1010" width="103.33333333333334" height="40" as="geometry" />
        </mxCell>
        <mxCell id="jRCGO-97fmJay-VYD4Cs-102" value="SaaS" style="rounded=0;whiteSpace=wrap;html=1;" parent="1" vertex="1">
          <mxGeometry x="308.33666666666676" y="1010" width="103.33333333333334" height="40" as="geometry" />
        </mxCell>
        <mxCell id="jRCGO-97fmJay-VYD4Cs-113" value="IaaS" style="rounded=0;whiteSpace=wrap;html=1;" parent="1" vertex="1">
          <mxGeometry x="50" y="1170" width="103.33333333333334" height="40" as="geometry" />
        </mxCell>
        <mxCell id="jRCGO-97fmJay-VYD4Cs-114" value="&lt;font style=&quot;font-size: 12px;&quot;&gt;Serverless&lt;/font&gt;" style="rounded=0;whiteSpace=wrap;html=1;spacingBottom=0;verticalAlign=top;spacingTop=0;fontSize=14;" parent="1" vertex="1">
          <mxGeometry x="260" y="1140" width="330" height="80" as="geometry" />
        </mxCell>
        <mxCell id="jRCGO-97fmJay-VYD4Cs-115" value="PaaS" style="rounded=0;whiteSpace=wrap;html=1;" parent="1" vertex="1">
          <mxGeometry x="179.16666666666669" y="1170" width="103.33333333333334" height="40" as="geometry" />
        </mxCell>
        <mxCell id="jRCGO-97fmJay-VYD4Cs-116" value="FaaS" style="rounded=0;whiteSpace=wrap;html=1;" parent="1" vertex="1">
          <mxGeometry x="308.33333333333337" y="1170" width="103.33333333333334" height="40" as="geometry" />
        </mxCell>
        <mxCell id="jRCGO-97fmJay-VYD4Cs-117" value="SaaS" style="rounded=0;whiteSpace=wrap;html=1;" parent="1" vertex="1">
          <mxGeometry x="566.6666666666667" y="1170" width="103.33333333333334" height="40" as="geometry" />
        </mxCell>
        <mxCell id="jRCGO-97fmJay-VYD4Cs-118" value="BaaS" style="rounded=0;whiteSpace=wrap;html=1;" parent="1" vertex="1">
          <mxGeometry x="437.5" y="1170" width="103.33333333333334" height="40" as="geometry" />
        </mxCell>
        <mxCell id="jRCGO-97fmJay-VYD4Cs-144" value="" style="endArrow=none;html=1;rounded=0;endFill=0;startArrow=none;startFill=0;" parent="1" edge="1">
          <mxGeometry width="50" height="50" relative="1" as="geometry">
            <mxPoint x="50" y="1060" as="sourcePoint" />
            <mxPoint x="412" y="1060" as="targetPoint" />
          </mxGeometry>
        </mxCell>
        <mxCell id="jRCGO-97fmJay-VYD4Cs-145" value="&lt;font style=&quot;font-size: 12px;&quot;&gt;Operational Responsibility&amp;nbsp;&lt;/font&gt;" style="edgeLabel;html=1;align=center;verticalAlign=top;resizable=0;points=[];spacing=0;" parent="jRCGO-97fmJay-VYD4Cs-144" vertex="1" connectable="0">
          <mxGeometry y="-3" relative="1" as="geometry">
            <mxPoint as="offset" />
          </mxGeometry>
        </mxCell>
        <mxCell id="jRCGO-97fmJay-VYD4Cs-149" value="Provider" style="edgeLabel;html=1;align=right;verticalAlign=top;resizable=0;points=[];fontSize=8;" parent="jRCGO-97fmJay-VYD4Cs-144" vertex="1" connectable="0">
          <mxGeometry x="1" relative="1" as="geometry">
            <mxPoint x="1" as="offset" />
          </mxGeometry>
        </mxCell>
        <mxCell id="jRCGO-97fmJay-VYD4Cs-151" value="Shared between User&lt;div&gt;and Provider&lt;/div&gt;" style="edgeLabel;html=1;align=left;verticalAlign=top;resizable=0;points=[];fontSize=8;" parent="jRCGO-97fmJay-VYD4Cs-144" vertex="1" connectable="0">
          <mxGeometry x="-1" relative="1" as="geometry">
            <mxPoint x="-2" as="offset" />
          </mxGeometry>
        </mxCell>
        <mxCell id="jRCGO-97fmJay-VYD4Cs-173" value="" style="endArrow=none;html=1;rounded=0;endFill=0;startArrow=none;startFill=0;" parent="1" edge="1">
          <mxGeometry width="50" height="50" relative="1" as="geometry">
            <mxPoint x="51.67" y="1230" as="sourcePoint" />
            <mxPoint x="670" y="1230" as="targetPoint" />
          </mxGeometry>
        </mxCell>
        <mxCell id="jRCGO-97fmJay-VYD4Cs-174" value="&lt;font style=&quot;font-size: 12px;&quot;&gt;Operational Responsibility&amp;nbsp;&lt;/font&gt;" style="edgeLabel;html=1;align=center;verticalAlign=top;resizable=0;points=[];spacing=0;" parent="jRCGO-97fmJay-VYD4Cs-173" vertex="1" connectable="0">
          <mxGeometry y="-3" relative="1" as="geometry">
            <mxPoint as="offset" />
          </mxGeometry>
        </mxCell>
        <mxCell id="jRCGO-97fmJay-VYD4Cs-176" value="Provider" style="edgeLabel;html=1;align=right;verticalAlign=top;resizable=0;points=[];fontSize=8;" parent="jRCGO-97fmJay-VYD4Cs-173" vertex="1" connectable="0">
          <mxGeometry x="1" relative="1" as="geometry">
            <mxPoint x="1" as="offset" />
          </mxGeometry>
        </mxCell>
        <mxCell id="jRCGO-97fmJay-VYD4Cs-177" value="Shared between User&lt;div&gt;and Provider&lt;/div&gt;" style="edgeLabel;html=1;align=left;verticalAlign=top;resizable=0;points=[];fontSize=8;" parent="jRCGO-97fmJay-VYD4Cs-173" vertex="1" connectable="0">
          <mxGeometry x="-1" relative="1" as="geometry">
            <mxPoint x="-2" as="offset" />
          </mxGeometry>
        </mxCell>
        <mxCell id="jRCGO-97fmJay-VYD4Cs-219" style="edgeStyle=orthogonalEdgeStyle;rounded=0;orthogonalLoop=1;jettySize=auto;html=1;entryX=0;entryY=0.5;entryDx=0;entryDy=0;" parent="1" source="jRCGO-97fmJay-VYD4Cs-220" target="jRCGO-97fmJay-VYD4Cs-226" edge="1">
          <mxGeometry relative="1" as="geometry" />
        </mxCell>
        <mxCell id="jRCGO-97fmJay-VYD4Cs-220" value="Clone repositories" style="rounded=0;whiteSpace=wrap;html=1;" parent="1" vertex="1">
          <mxGeometry x="1125" y="110" width="95" height="40" as="geometry" />
        </mxCell>
        <mxCell id="jRCGO-97fmJay-VYD4Cs-221" style="edgeStyle=orthogonalEdgeStyle;rounded=0;orthogonalLoop=1;jettySize=auto;html=1;dashed=1;dashPattern=8 8;" parent="1" source="jRCGO-97fmJay-VYD4Cs-222" target="jRCGO-97fmJay-VYD4Cs-220" edge="1">
          <mxGeometry relative="1" as="geometry" />
        </mxCell>
        <mxCell id="jRCGO-97fmJay-VYD4Cs-222" value="GitHub" style="verticalLabelPosition=middle;verticalAlign=middle;html=1;shape=card;whiteSpace=wrap;size=20;arcSize=12;spacing=0;spacingBottom=0;labelPosition=center;align=center;" parent="1" vertex="1">
          <mxGeometry x="1125" y="40" width="95" height="40" as="geometry" />
        </mxCell>
        <mxCell id="jRCGO-97fmJay-VYD4Cs-224" style="edgeStyle=orthogonalEdgeStyle;rounded=0;orthogonalLoop=1;jettySize=auto;html=1;" parent="1" source="jRCGO-97fmJay-VYD4Cs-226" target="jRCGO-97fmJay-VYD4Cs-228" edge="1">
          <mxGeometry relative="1" as="geometry" />
        </mxCell>
        <mxCell id="jRCGO-97fmJay-VYD4Cs-225" style="edgeStyle=orthogonalEdgeStyle;rounded=0;orthogonalLoop=1;jettySize=auto;html=1;" parent="1" source="jRCGO-97fmJay-VYD4Cs-226" target="jRCGO-97fmJay-VYD4Cs-230" edge="1">
          <mxGeometry relative="1" as="geometry" />
        </mxCell>
        <mxCell id="jRCGO-97fmJay-VYD4Cs-226" value="Extract FaaS characteristics&amp;nbsp;" style="rounded=0;whiteSpace=wrap;html=1;" parent="1" vertex="1">
          <mxGeometry x="1255" y="110" width="110" height="40" as="geometry" />
        </mxCell>
        <mxCell id="jRCGO-97fmJay-VYD4Cs-227" style="edgeStyle=orthogonalEdgeStyle;rounded=0;orthogonalLoop=1;jettySize=auto;html=1;entryX=0.5;entryY=1;entryDx=0;entryDy=0;" parent="1" source="jRCGO-97fmJay-VYD4Cs-228" target="jRCGO-97fmJay-VYD4Cs-241" edge="1">
          <mxGeometry relative="1" as="geometry" />
        </mxCell>
        <mxCell id="jRCGO-97fmJay-VYD4Cs-228" value="FaaS repositories" style="strokeWidth=1;html=1;shape=mxgraph.flowchart.multi-document;whiteSpace=wrap;spacingRight=10;" parent="1" vertex="1">
          <mxGeometry x="1435" y="60" width="88" height="60" as="geometry" />
        </mxCell>
        <mxCell id="jRCGO-97fmJay-VYD4Cs-229" style="edgeStyle=orthogonalEdgeStyle;rounded=0;orthogonalLoop=1;jettySize=auto;html=1;entryX=1;entryY=0.5;entryDx=0;entryDy=0;" parent="1" source="jRCGO-97fmJay-VYD4Cs-230" target="jRCGO-97fmJay-VYD4Cs-235" edge="1">
          <mxGeometry relative="1" as="geometry">
            <Array as="points">
              <mxPoint x="1475" y="220" />
            </Array>
          </mxGeometry>
        </mxCell>
        <mxCell id="jRCGO-97fmJay-VYD4Cs-230" value="Non FaaS repositories" style="strokeWidth=1;html=1;shape=mxgraph.flowchart.multi-document;whiteSpace=wrap;flipH=1;flipV=1;direction=west;spacingRight=10;" parent="1" vertex="1">
          <mxGeometry x="1435" y="140" width="88" height="60" as="geometry" />
        </mxCell>
        <mxCell id="jRCGO-97fmJay-VYD4Cs-234" style="edgeStyle=orthogonalEdgeStyle;rounded=0;orthogonalLoop=1;jettySize=auto;html=1;entryX=0.5;entryY=1;entryDx=0;entryDy=0;" parent="1" source="jRCGO-97fmJay-VYD4Cs-235" target="jRCGO-97fmJay-VYD4Cs-226" edge="1">
          <mxGeometry relative="1" as="geometry" />
        </mxCell>
        <mxCell id="jRCGO-97fmJay-VYD4Cs-235" value="Add&amp;nbsp;&lt;span style=&quot;background-color: initial;&quot;&gt;framework&amp;nbsp;&lt;/span&gt;&lt;span style=&quot;background-color: initial;&quot;&gt;detectors&lt;/span&gt;" style="rounded=0;whiteSpace=wrap;html=1;" parent="1" vertex="1">
          <mxGeometry x="1240" y="200" width="140" height="40" as="geometry" />
        </mxCell>
        <mxCell id="jRCGO-97fmJay-VYD4Cs-239" style="edgeStyle=orthogonalEdgeStyle;rounded=0;orthogonalLoop=1;jettySize=auto;html=1;entryX=0.5;entryY=0;entryDx=0;entryDy=0;dashed=1;dashPattern=8 8;" parent="1" source="jRCGO-97fmJay-VYD4Cs-240" target="jRCGO-97fmJay-VYD4Cs-226" edge="1">
          <mxGeometry relative="1" as="geometry" />
        </mxCell>
        <mxCell id="jRCGO-97fmJay-VYD4Cs-240" value="Framework&lt;div&gt;Detectors&lt;/div&gt;" style="verticalLabelPosition=middle;verticalAlign=middle;html=1;shape=card;whiteSpace=wrap;size=20;arcSize=12;spacing=0;spacingBottom=0;labelPosition=center;align=center;spacingLeft=5;spacingRight=5;" parent="1" vertex="1">
          <mxGeometry x="1255" y="40" width="110" height="40" as="geometry" />
        </mxCell>
        <mxCell id="jRCGO-97fmJay-VYD4Cs-241" value="Manual filtering" style="verticalLabelPosition=middle;verticalAlign=middle;html=1;shape=trapezoid;perimeter=trapezoidPerimeter;whiteSpace=wrap;size=0.23;arcSize=10;flipV=1;labelPosition=center;align=center;direction=south;" parent="1" vertex="1">
          <mxGeometry x="1565" y="60" width="90" height="60" as="geometry" />
        </mxCell>
        <mxCell id="jRCGO-97fmJay-VYD4Cs-242" value="Final FaaS repositories" style="strokeWidth=1;html=1;shape=mxgraph.flowchart.multi-document;whiteSpace=wrap;spacingRight=10;" parent="1" vertex="1">
          <mxGeometry x="1695" y="60" width="88" height="60" as="geometry" />
        </mxCell>
        <mxCell id="jRCGO-97fmJay-VYD4Cs-243" style="edgeStyle=orthogonalEdgeStyle;rounded=0;orthogonalLoop=1;jettySize=auto;html=1;entryX=0;entryY=0.5;entryDx=0;entryDy=0;entryPerimeter=0;" parent="1" source="jRCGO-97fmJay-VYD4Cs-241" target="jRCGO-97fmJay-VYD4Cs-242" edge="1">
          <mxGeometry relative="1" as="geometry" />
        </mxCell>
        <mxCell id="jRCGO-97fmJay-VYD4Cs-244" style="edgeStyle=orthogonalEdgeStyle;rounded=0;orthogonalLoop=1;jettySize=auto;html=1;dashed=1;dashPattern=8 8;" parent="1" source="jRCGO-97fmJay-VYD4Cs-245" target="jRCGO-97fmJay-VYD4Cs-235" edge="1">
          <mxGeometry relative="1" as="geometry" />
        </mxCell>
        <mxCell id="jRCGO-97fmJay-VYD4Cs-245" value="" style="shape=actor;whiteSpace=wrap;html=1;" parent="1" vertex="1">
          <mxGeometry x="1175" y="200" width="30" height="40" as="geometry" />
        </mxCell>
        <mxCell id="jRCGO-97fmJay-VYD4Cs-246" style="edgeStyle=orthogonalEdgeStyle;rounded=0;orthogonalLoop=1;jettySize=auto;html=1;entryX=1;entryY=0.5;entryDx=0;entryDy=0;dashed=1;dashPattern=8 8;" parent="1" source="jRCGO-97fmJay-VYD4Cs-247" target="jRCGO-97fmJay-VYD4Cs-241" edge="1">
          <mxGeometry relative="1" as="geometry" />
        </mxCell>
        <mxCell id="jRCGO-97fmJay-VYD4Cs-247" value="" style="shape=actor;whiteSpace=wrap;html=1;" parent="1" vertex="1">
          <mxGeometry x="1595" y="150" width="30" height="40" as="geometry" />
        </mxCell>
        <mxCell id="jRCGO-97fmJay-VYD4Cs-249" style="edgeStyle=orthogonalEdgeStyle;rounded=0;orthogonalLoop=1;jettySize=auto;html=1;" parent="1" source="jRCGO-97fmJay-VYD4Cs-248" target="jRCGO-97fmJay-VYD4Cs-220" edge="1">
          <mxGeometry relative="1" as="geometry" />
        </mxCell>
        <mxCell id="jRCGO-97fmJay-VYD4Cs-248" value="Prefilter repositories" style="rounded=0;whiteSpace=wrap;html=1;" parent="1" vertex="1">
          <mxGeometry x="870" y="110" width="220" height="40" as="geometry" />
        </mxCell>
        <mxCell id="jRCGO-97fmJay-VYD4Cs-250" value="GitHub API" style="verticalLabelPosition=middle;verticalAlign=middle;html=1;shape=card;whiteSpace=wrap;size=20;arcSize=12;spacing=0;spacingBottom=0;labelPosition=center;align=center;" parent="1" vertex="1">
          <mxGeometry x="870" y="40" width="80" height="40" as="geometry" />
        </mxCell>
        <mxCell id="jRCGO-97fmJay-VYD4Cs-251" value="GH Archive" style="verticalLabelPosition=middle;verticalAlign=middle;html=1;shape=card;whiteSpace=wrap;size=20;arcSize=12;spacing=0;spacingBottom=0;labelPosition=center;align=center;spacingLeft=3;" parent="1" vertex="1">
          <mxGeometry x="960" y="40" width="60" height="40" as="geometry" />
        </mxCell>
        <mxCell id="jRCGO-97fmJay-VYD4Cs-252" value="GitHub" style="verticalLabelPosition=middle;verticalAlign=middle;html=1;shape=card;whiteSpace=wrap;size=20;arcSize=12;spacing=0;spacingBottom=0;labelPosition=center;align=center;spacingLeft=3;" parent="1" vertex="1">
          <mxGeometry x="1030" y="40" width="60" height="40" as="geometry" />
        </mxCell>
        <mxCell id="jRCGO-97fmJay-VYD4Cs-255" style="edgeStyle=orthogonalEdgeStyle;rounded=0;orthogonalLoop=1;jettySize=auto;html=1;entryX=0.182;entryY=0;entryDx=0;entryDy=0;entryPerimeter=0;dashed=1;dashPattern=8 8;" parent="1" source="jRCGO-97fmJay-VYD4Cs-250" target="jRCGO-97fmJay-VYD4Cs-248" edge="1">
          <mxGeometry relative="1" as="geometry" />
        </mxCell>
        <mxCell id="jRCGO-97fmJay-VYD4Cs-256" style="edgeStyle=orthogonalEdgeStyle;rounded=0;orthogonalLoop=1;jettySize=auto;html=1;entryX=0.545;entryY=0;entryDx=0;entryDy=0;entryPerimeter=0;dashed=1;dashPattern=8 8;" parent="1" source="jRCGO-97fmJay-VYD4Cs-251" target="jRCGO-97fmJay-VYD4Cs-248" edge="1">
          <mxGeometry relative="1" as="geometry" />
        </mxCell>
        <mxCell id="jRCGO-97fmJay-VYD4Cs-257" style="edgeStyle=orthogonalEdgeStyle;rounded=0;orthogonalLoop=1;jettySize=auto;html=1;entryX=0.864;entryY=0;entryDx=0;entryDy=0;entryPerimeter=0;dashed=1;dashPattern=8 8;" parent="1" source="jRCGO-97fmJay-VYD4Cs-252" target="jRCGO-97fmJay-VYD4Cs-248" edge="1">
          <mxGeometry relative="1" as="geometry" />
        </mxCell>
        <mxCell id="jRCGO-97fmJay-VYD4Cs-258" style="edgeStyle=orthogonalEdgeStyle;rounded=0;orthogonalLoop=1;jettySize=auto;html=1;entryX=0;entryY=0.5;entryDx=0;entryDy=0;" parent="1" source="jRCGO-97fmJay-VYD4Cs-259" target="jRCGO-97fmJay-VYD4Cs-264" edge="1">
          <mxGeometry relative="1" as="geometry" />
        </mxCell>
        <mxCell id="jRCGO-97fmJay-VYD4Cs-259" value="Clone repositories" style="rounded=0;whiteSpace=wrap;html=1;" parent="1" vertex="1">
          <mxGeometry x="1125" y="370" width="95" height="40" as="geometry" />
        </mxCell>
        <mxCell id="jRCGO-97fmJay-VYD4Cs-260" style="edgeStyle=orthogonalEdgeStyle;rounded=0;orthogonalLoop=1;jettySize=auto;html=1;dashed=1;dashPattern=8 8;" parent="1" source="jRCGO-97fmJay-VYD4Cs-261" target="jRCGO-97fmJay-VYD4Cs-259" edge="1">
          <mxGeometry relative="1" as="geometry" />
        </mxCell>
        <mxCell id="jRCGO-97fmJay-VYD4Cs-261" value="GitHub" style="verticalLabelPosition=middle;verticalAlign=middle;html=1;shape=card;whiteSpace=wrap;size=20;arcSize=12;spacing=0;spacingBottom=0;labelPosition=center;align=center;" parent="1" vertex="1">
          <mxGeometry x="1125" y="300" width="95" height="40" as="geometry" />
        </mxCell>
        <mxCell id="jRCGO-97fmJay-VYD4Cs-290" style="edgeStyle=orthogonalEdgeStyle;rounded=0;orthogonalLoop=1;jettySize=auto;html=1;entryX=0;entryY=0.5;entryDx=0;entryDy=0;" parent="1" source="jRCGO-97fmJay-VYD4Cs-264" target="jRCGO-97fmJay-VYD4Cs-270" edge="1">
          <mxGeometry relative="1" as="geometry" />
        </mxCell>
        <mxCell id="jRCGO-97fmJay-VYD4Cs-264" value="Extract FaaS characteristics&amp;nbsp;" style="rounded=0;whiteSpace=wrap;html=1;" parent="1" vertex="1">
          <mxGeometry x="1255" y="370" width="110" height="40" as="geometry" />
        </mxCell>
        <mxCell id="jRCGO-97fmJay-VYD4Cs-293" style="edgeStyle=orthogonalEdgeStyle;rounded=0;orthogonalLoop=1;jettySize=auto;html=1;entryX=0.5;entryY=1;entryDx=0;entryDy=0;" parent="1" source="jRCGO-97fmJay-VYD4Cs-270" target="jRCGO-97fmJay-VYD4Cs-273" edge="1">
          <mxGeometry relative="1" as="geometry" />
        </mxCell>
        <mxCell id="jRCGO-97fmJay-VYD4Cs-270" value="Review" style="rounded=0;whiteSpace=wrap;html=1;" parent="1" vertex="1">
          <mxGeometry x="1400" y="370" width="110" height="40" as="geometry" />
        </mxCell>
        <mxCell id="jRCGO-97fmJay-VYD4Cs-271" style="edgeStyle=orthogonalEdgeStyle;rounded=0;orthogonalLoop=1;jettySize=auto;html=1;entryX=0.5;entryY=0;entryDx=0;entryDy=0;dashed=1;dashPattern=8 8;" parent="1" source="jRCGO-97fmJay-VYD4Cs-272" target="jRCGO-97fmJay-VYD4Cs-264" edge="1">
          <mxGeometry relative="1" as="geometry" />
        </mxCell>
        <mxCell id="jRCGO-97fmJay-VYD4Cs-272" value="Detectors" style="verticalLabelPosition=middle;verticalAlign=middle;html=1;shape=card;whiteSpace=wrap;size=20;arcSize=12;spacing=0;spacingBottom=0;labelPosition=center;align=center;spacingLeft=5;spacingRight=5;" parent="1" vertex="1">
          <mxGeometry x="1255" y="300" width="110" height="40" as="geometry" />
        </mxCell>
        <mxCell id="jRCGO-97fmJay-VYD4Cs-273" value="Filtering" style="verticalLabelPosition=middle;verticalAlign=middle;html=1;shape=trapezoid;perimeter=trapezoidPerimeter;whiteSpace=wrap;size=0.23;arcSize=10;flipV=1;labelPosition=center;align=center;direction=south;" parent="1" vertex="1">
          <mxGeometry x="1550" y="360" width="90" height="60" as="geometry" />
        </mxCell>
        <mxCell id="jRCGO-97fmJay-VYD4Cs-276" style="edgeStyle=orthogonalEdgeStyle;rounded=0;orthogonalLoop=1;jettySize=auto;html=1;dashed=1;dashPattern=8 8;" parent="1" source="jRCGO-97fmJay-VYD4Cs-277" target="jRCGO-97fmJay-VYD4Cs-270" edge="1">
          <mxGeometry relative="1" as="geometry">
            <Array as="points">
              <mxPoint x="1455" y="450" />
            </Array>
          </mxGeometry>
        </mxCell>
        <mxCell id="jRCGO-97fmJay-VYD4Cs-295" style="edgeStyle=orthogonalEdgeStyle;rounded=0;orthogonalLoop=1;jettySize=auto;html=1;entryX=1;entryY=0.5;entryDx=0;entryDy=0;dashed=1;dashPattern=8 8;" parent="1" source="jRCGO-97fmJay-VYD4Cs-277" target="jRCGO-97fmJay-VYD4Cs-273" edge="1">
          <mxGeometry relative="1" as="geometry" />
        </mxCell>
        <mxCell id="jRCGO-97fmJay-VYD4Cs-277" value="" style="shape=actor;whiteSpace=wrap;html=1;" parent="1" vertex="1">
          <mxGeometry x="1510" y="430" width="30" height="40" as="geometry" />
        </mxCell>
        <mxCell id="jRCGO-97fmJay-VYD4Cs-280" style="edgeStyle=orthogonalEdgeStyle;rounded=0;orthogonalLoop=1;jettySize=auto;html=1;" parent="1" source="jRCGO-97fmJay-VYD4Cs-281" target="jRCGO-97fmJay-VYD4Cs-259" edge="1">
          <mxGeometry relative="1" as="geometry" />
        </mxCell>
        <mxCell id="jRCGO-97fmJay-VYD4Cs-281" value="Prefilter repositories" style="rounded=0;whiteSpace=wrap;html=1;" parent="1" vertex="1">
          <mxGeometry x="870" y="370" width="220" height="40" as="geometry" />
        </mxCell>
        <mxCell id="jRCGO-97fmJay-VYD4Cs-282" value="GitHub API" style="verticalLabelPosition=middle;verticalAlign=middle;html=1;shape=card;whiteSpace=wrap;size=20;arcSize=12;spacing=0;spacingBottom=0;labelPosition=center;align=center;" parent="1" vertex="1">
          <mxGeometry x="870" y="300" width="80" height="40" as="geometry" />
        </mxCell>
        <mxCell id="jRCGO-97fmJay-VYD4Cs-283" value="GH Archive" style="verticalLabelPosition=middle;verticalAlign=middle;html=1;shape=card;whiteSpace=wrap;size=20;arcSize=12;spacing=0;spacingBottom=0;labelPosition=center;align=center;spacingLeft=3;" parent="1" vertex="1">
          <mxGeometry x="960" y="300" width="60" height="40" as="geometry" />
        </mxCell>
        <mxCell id="jRCGO-97fmJay-VYD4Cs-284" value="GitHub" style="verticalLabelPosition=middle;verticalAlign=middle;html=1;shape=card;whiteSpace=wrap;size=20;arcSize=12;spacing=0;spacingBottom=0;labelPosition=center;align=center;spacingLeft=3;" parent="1" vertex="1">
          <mxGeometry x="1030" y="300" width="60" height="40" as="geometry" />
        </mxCell>
        <mxCell id="jRCGO-97fmJay-VYD4Cs-285" style="edgeStyle=orthogonalEdgeStyle;rounded=0;orthogonalLoop=1;jettySize=auto;html=1;entryX=0.182;entryY=0;entryDx=0;entryDy=0;entryPerimeter=0;dashed=1;dashPattern=8 8;" parent="1" source="jRCGO-97fmJay-VYD4Cs-282" target="jRCGO-97fmJay-VYD4Cs-281" edge="1">
          <mxGeometry relative="1" as="geometry" />
        </mxCell>
        <mxCell id="jRCGO-97fmJay-VYD4Cs-286" style="edgeStyle=orthogonalEdgeStyle;rounded=0;orthogonalLoop=1;jettySize=auto;html=1;entryX=0.545;entryY=0;entryDx=0;entryDy=0;entryPerimeter=0;dashed=1;dashPattern=8 8;" parent="1" source="jRCGO-97fmJay-VYD4Cs-283" target="jRCGO-97fmJay-VYD4Cs-281" edge="1">
          <mxGeometry relative="1" as="geometry" />
        </mxCell>
        <mxCell id="jRCGO-97fmJay-VYD4Cs-287" style="edgeStyle=orthogonalEdgeStyle;rounded=0;orthogonalLoop=1;jettySize=auto;html=1;entryX=0.864;entryY=0;entryDx=0;entryDy=0;entryPerimeter=0;dashed=1;dashPattern=8 8;" parent="1" source="jRCGO-97fmJay-VYD4Cs-284" target="jRCGO-97fmJay-VYD4Cs-281" edge="1">
          <mxGeometry relative="1" as="geometry" />
        </mxCell>
        <mxCell id="jRCGO-97fmJay-VYD4Cs-291" style="edgeStyle=orthogonalEdgeStyle;rounded=0;orthogonalLoop=1;jettySize=auto;html=1;entryX=1;entryY=0.5;entryDx=0;entryDy=0;entryPerimeter=0;dashed=1;dashPattern=8 8;" parent="1" source="jRCGO-97fmJay-VYD4Cs-270" target="jRCGO-97fmJay-VYD4Cs-272" edge="1">
          <mxGeometry relative="1" as="geometry">
            <Array as="points">
              <mxPoint x="1455" y="320" />
            </Array>
          </mxGeometry>
        </mxCell>
        <mxCell id="jRCGO-97fmJay-VYD4Cs-318" value="" style="group" parent="1" vertex="1" connectable="0">
          <mxGeometry x="921" y="605" width="84" height="100" as="geometry" />
        </mxCell>
        <mxCell id="jRCGO-97fmJay-VYD4Cs-303" value="" style="shape=note;whiteSpace=wrap;html=1;backgroundOutline=1;darkOpacity=0.05;labelPosition=center;verticalLabelPosition=bottom;align=center;verticalAlign=top;" parent="jRCGO-97fmJay-VYD4Cs-318" vertex="1">
          <mxGeometry x="20" width="64" height="80" as="geometry" />
        </mxCell>
        <mxCell id="jRCGO-97fmJay-VYD4Cs-335" value="" style="group" parent="jRCGO-97fmJay-VYD4Cs-318" vertex="1" connectable="0">
          <mxGeometry y="10" width="73" height="90" as="geometry" />
        </mxCell>
        <mxCell id="jRCGO-97fmJay-VYD4Cs-304" value="" style="shape=note;whiteSpace=wrap;html=1;backgroundOutline=1;darkOpacity=0.05;labelPosition=center;verticalLabelPosition=bottom;align=center;verticalAlign=top;" parent="jRCGO-97fmJay-VYD4Cs-335" vertex="1">
          <mxGeometry x="9" width="64" height="80" as="geometry" />
        </mxCell>
        <mxCell id="jRCGO-97fmJay-VYD4Cs-305" value="&lt;font style=&quot;font-size: 14px;&quot;&gt;Source Code&lt;/font&gt;" style="shape=note;whiteSpace=wrap;html=1;backgroundOutline=1;darkOpacity=0.05;labelPosition=center;verticalLabelPosition=bottom;align=center;verticalAlign=top;" parent="jRCGO-97fmJay-VYD4Cs-335" vertex="1">
          <mxGeometry y="10" width="64" height="80" as="geometry" />
        </mxCell>
        <mxCell id="jRCGO-97fmJay-VYD4Cs-329" style="edgeStyle=orthogonalEdgeStyle;rounded=0;orthogonalLoop=1;jettySize=auto;html=1;entryX=0;entryY=0.5;entryDx=0;entryDy=0;" parent="1" source="jRCGO-97fmJay-VYD4Cs-326" target="jRCGO-97fmJay-VYD4Cs-328" edge="1">
          <mxGeometry relative="1" as="geometry" />
        </mxCell>
        <mxCell id="jRCGO-97fmJay-VYD4Cs-326" value="Parse" style="rounded=0;whiteSpace=wrap;html=1;" parent="1" vertex="1">
          <mxGeometry x="1185" y="640" width="115" height="40" as="geometry" />
        </mxCell>
        <mxCell id="jRCGO-97fmJay-VYD4Cs-328" value="Extract" style="rounded=0;whiteSpace=wrap;html=1;" parent="1" vertex="1">
          <mxGeometry x="1340" y="640" width="95" height="40" as="geometry" />
        </mxCell>
        <mxCell id="jRCGO-97fmJay-VYD4Cs-331" style="edgeStyle=orthogonalEdgeStyle;rounded=0;orthogonalLoop=1;jettySize=auto;html=1;entryX=0.5;entryY=0;entryDx=0;entryDy=0;dashed=1;dashPattern=8 8;" parent="1" source="jRCGO-97fmJay-VYD4Cs-330" target="jRCGO-97fmJay-VYD4Cs-326" edge="1">
          <mxGeometry relative="1" as="geometry" />
        </mxCell>
        <mxCell id="jRCGO-97fmJay-VYD4Cs-330" value="Specification" style="verticalLabelPosition=middle;verticalAlign=middle;html=1;shape=card;whiteSpace=wrap;size=20;arcSize=12;spacing=0;spacingBottom=0;labelPosition=center;align=center;spacingLeft=5;spacingRight=5;" parent="1" vertex="1">
          <mxGeometry x="1185" y="570" width="115" height="40" as="geometry" />
        </mxCell>
        <mxCell id="jRCGO-97fmJay-VYD4Cs-334" style="edgeStyle=orthogonalEdgeStyle;rounded=0;orthogonalLoop=1;jettySize=auto;html=1;entryX=0;entryY=0.5;entryDx=0;entryDy=0;" parent="1" source="jRCGO-97fmJay-VYD4Cs-332" target="jRCGO-97fmJay-VYD4Cs-326" edge="1">
          <mxGeometry relative="1" as="geometry" />
        </mxCell>
        <mxCell id="jRCGO-97fmJay-VYD4Cs-332" value="Filter" style="rounded=0;whiteSpace=wrap;html=1;" parent="1" vertex="1">
          <mxGeometry x="1048" y="640" width="95" height="40" as="geometry" />
        </mxCell>
        <mxCell id="jRCGO-97fmJay-VYD4Cs-333" style="edgeStyle=orthogonalEdgeStyle;rounded=0;orthogonalLoop=1;jettySize=auto;html=1;exitX=0;exitY=0;exitDx=64;exitDy=55;exitPerimeter=0;entryX=0;entryY=0.5;entryDx=0;entryDy=0;" parent="1" source="jRCGO-97fmJay-VYD4Cs-303" target="jRCGO-97fmJay-VYD4Cs-332" edge="1">
          <mxGeometry relative="1" as="geometry" />
        </mxCell>
        <mxCell id="jRCGO-97fmJay-VYD4Cs-342" value="" style="group" parent="1" vertex="1" connectable="0">
          <mxGeometry x="980" y="875" width="84" height="100" as="geometry" />
        </mxCell>
        <mxCell id="jRCGO-97fmJay-VYD4Cs-343" value="" style="shape=note;whiteSpace=wrap;html=1;backgroundOutline=1;darkOpacity=0.05;labelPosition=center;verticalLabelPosition=bottom;align=center;verticalAlign=top;" parent="jRCGO-97fmJay-VYD4Cs-342" vertex="1">
          <mxGeometry x="20" width="64" height="80" as="geometry" />
        </mxCell>
        <mxCell id="jRCGO-97fmJay-VYD4Cs-344" value="" style="group" parent="jRCGO-97fmJay-VYD4Cs-342" vertex="1" connectable="0">
          <mxGeometry y="10" width="73" height="90" as="geometry" />
        </mxCell>
        <mxCell id="jRCGO-97fmJay-VYD4Cs-345" value="" style="shape=note;whiteSpace=wrap;html=1;backgroundOutline=1;darkOpacity=0.05;labelPosition=center;verticalLabelPosition=bottom;align=center;verticalAlign=top;" parent="jRCGO-97fmJay-VYD4Cs-344" vertex="1">
          <mxGeometry x="9" width="64" height="80" as="geometry" />
        </mxCell>
        <mxCell id="jRCGO-97fmJay-VYD4Cs-346" value="&lt;font style=&quot;font-size: 14px;&quot;&gt;Source Code&lt;/font&gt;" style="shape=note;whiteSpace=wrap;html=1;backgroundOutline=1;darkOpacity=0.05;labelPosition=center;verticalLabelPosition=bottom;align=center;verticalAlign=top;" parent="jRCGO-97fmJay-VYD4Cs-344" vertex="1">
          <mxGeometry y="10" width="64" height="80" as="geometry" />
        </mxCell>
        <mxCell id="jRCGO-97fmJay-VYD4Cs-404" style="edgeStyle=orthogonalEdgeStyle;rounded=0;orthogonalLoop=1;jettySize=auto;html=1;entryX=0;entryY=0.5;entryDx=0;entryDy=0;" parent="1" source="jRCGO-97fmJay-VYD4Cs-348" target="jRCGO-97fmJay-VYD4Cs-403" edge="1">
          <mxGeometry relative="1" as="geometry" />
        </mxCell>
        <mxCell id="jRCGO-97fmJay-VYD4Cs-348" value="Scan" style="rounded=0;whiteSpace=wrap;html=1;" parent="1" vertex="1">
          <mxGeometry x="1244" y="910" width="115" height="40" as="geometry" />
        </mxCell>
        <mxCell id="jRCGO-97fmJay-VYD4Cs-350" style="edgeStyle=orthogonalEdgeStyle;rounded=0;orthogonalLoop=1;jettySize=auto;html=1;entryX=0.5;entryY=0;entryDx=0;entryDy=0;dashed=1;dashPattern=8 8;" parent="1" source="jRCGO-97fmJay-VYD4Cs-351" target="jRCGO-97fmJay-VYD4Cs-348" edge="1">
          <mxGeometry relative="1" as="geometry" />
        </mxCell>
        <mxCell id="jRCGO-97fmJay-VYD4Cs-351" value="Specification" style="verticalLabelPosition=middle;verticalAlign=middle;html=1;shape=card;whiteSpace=wrap;size=20;arcSize=12;spacing=0;spacingBottom=0;labelPosition=center;align=center;spacingLeft=5;spacingRight=5;" parent="1" vertex="1">
          <mxGeometry x="1244" y="840" width="115" height="40" as="geometry" />
        </mxCell>
        <mxCell id="jRCGO-97fmJay-VYD4Cs-352" style="edgeStyle=orthogonalEdgeStyle;rounded=0;orthogonalLoop=1;jettySize=auto;html=1;entryX=0;entryY=0.5;entryDx=0;entryDy=0;" parent="1" source="jRCGO-97fmJay-VYD4Cs-353" target="jRCGO-97fmJay-VYD4Cs-348" edge="1">
          <mxGeometry relative="1" as="geometry" />
        </mxCell>
        <mxCell id="jRCGO-97fmJay-VYD4Cs-353" value="Filter" style="rounded=0;whiteSpace=wrap;html=1;" parent="1" vertex="1">
          <mxGeometry x="1107" y="910" width="95" height="40" as="geometry" />
        </mxCell>
        <mxCell id="jRCGO-97fmJay-VYD4Cs-354" style="edgeStyle=orthogonalEdgeStyle;rounded=0;orthogonalLoop=1;jettySize=auto;html=1;exitX=0;exitY=0;exitDx=64;exitDy=55;exitPerimeter=0;entryX=0;entryY=0.5;entryDx=0;entryDy=0;" parent="1" source="jRCGO-97fmJay-VYD4Cs-343" target="jRCGO-97fmJay-VYD4Cs-353" edge="1">
          <mxGeometry relative="1" as="geometry" />
        </mxCell>
        <mxCell id="jRCGO-97fmJay-VYD4Cs-360" value="API" style="rounded=0;whiteSpace=wrap;html=1;" parent="1" vertex="1">
          <mxGeometry x="970" y="1170" width="90" height="40" as="geometry" />
        </mxCell>
        <mxCell id="jRCGO-97fmJay-VYD4Cs-361" value="DB" style="shape=cylinder3;whiteSpace=wrap;html=1;boundedLbl=1;backgroundOutline=1;size=15;" parent="1" vertex="1">
          <mxGeometry x="1108.75" y="1220" width="52.5" height="60" as="geometry" />
        </mxCell>
        <mxCell id="jRCGO-97fmJay-VYD4Cs-363" value="Worker" style="rounded=0;whiteSpace=wrap;html=1;" parent="1" vertex="1">
          <mxGeometry x="1210" y="1310" width="91" height="40" as="geometry" />
        </mxCell>
        <mxCell id="jRCGO-97fmJay-VYD4Cs-427" style="edgeStyle=orthogonalEdgeStyle;rounded=0;orthogonalLoop=1;jettySize=auto;html=1;entryX=0;entryY=0.5;entryDx=0;entryDy=0;dashed=1;dashPattern=8 8;" parent="1" source="jRCGO-97fmJay-VYD4Cs-369" target="jRCGO-97fmJay-VYD4Cs-371" edge="1">
          <mxGeometry relative="1" as="geometry" />
        </mxCell>
        <mxCell id="jRCGO-97fmJay-VYD4Cs-369" value="" style="strokeWidth=1;outlineConnect=0;dashed=0;align=center;fontSize=8;shape=mxgraph.eip.messExp;html=1;verticalLabelPosition=bottom;verticalAlign=top;fillStyle=auto;fillColor=#FFFFFF;fontColor=#FFFFFF;strokeColor=default;labelBackgroundColor=none;gradientColor=none;movable=1;resizable=1;rotatable=1;deletable=1;editable=1;locked=0;connectable=1;" parent="1" vertex="1">
          <mxGeometry x="886" y="1306" width="48" height="48" as="geometry" />
        </mxCell>
        <mxCell id="jRCGO-97fmJay-VYD4Cs-371" value="Dispatcher" style="rounded=0;whiteSpace=wrap;html=1;" parent="1" vertex="1">
          <mxGeometry x="970" y="1310" width="90" height="40" as="geometry" />
        </mxCell>
        <mxCell id="jRCGO-97fmJay-VYD4Cs-387" value="Dashboard&amp;nbsp;" style="rounded=0;whiteSpace=wrap;html=1;" parent="1" vertex="1">
          <mxGeometry x="1210" y="1170" width="90" height="40" as="geometry" />
        </mxCell>
        <mxCell id="jRCGO-97fmJay-VYD4Cs-403" value="Extract" style="rounded=0;whiteSpace=wrap;html=1;" parent="1" vertex="1">
          <mxGeometry x="1400" y="910" width="95" height="40" as="geometry" />
        </mxCell>
        <mxCell id="jRCGO-97fmJay-VYD4Cs-406" value="1" style="ellipse;whiteSpace=wrap;html=1;aspect=fixed;fillStyle=solid;fillColor=#000000;strokeColor=none;fontSize=8;fontStyle=1;fontColor=#F0F0F0;" parent="1" vertex="1">
          <mxGeometry x="42" y="138" width="10" height="10" as="geometry" />
        </mxCell>
        <mxCell id="jRCGO-97fmJay-VYD4Cs-407" value="2" style="ellipse;whiteSpace=wrap;html=1;aspect=fixed;fillStyle=solid;fillColor=#000000;strokeColor=none;fontSize=8;fontStyle=1;fontColor=#F0F0F0;" parent="1" vertex="1">
          <mxGeometry x="162" y="138" width="10" height="10" as="geometry" />
        </mxCell>
        <mxCell id="jRCGO-97fmJay-VYD4Cs-408" value="3" style="ellipse;whiteSpace=wrap;html=1;aspect=fixed;fillStyle=solid;fillColor=#000000;strokeColor=none;fontSize=8;fontStyle=1;fontColor=#F0F0F0;" parent="1" vertex="1">
          <mxGeometry x="332" y="146.99" width="10" height="10" as="geometry" />
        </mxCell>
        <mxCell id="jRCGO-97fmJay-VYD4Cs-410" value="4" style="ellipse;whiteSpace=wrap;html=1;aspect=fixed;fillStyle=solid;fillColor=#000000;strokeColor=none;fontSize=8;fontStyle=1;fontColor=#F0F0F0;" parent="1" vertex="1">
          <mxGeometry x="452" y="138" width="10" height="10" as="geometry" />
        </mxCell>
        <mxCell id="jRCGO-97fmJay-VYD4Cs-411" value="5" style="ellipse;whiteSpace=wrap;html=1;aspect=fixed;fillStyle=solid;fillColor=#000000;strokeColor=none;fontSize=8;fontStyle=1;fontColor=#F0F0F0;" parent="1" vertex="1">
          <mxGeometry x="647" y="147" width="10" height="10" as="geometry" />
        </mxCell>
        <mxCell id="jRCGO-97fmJay-VYD4Cs-412" value="6" style="ellipse;whiteSpace=wrap;html=1;aspect=fixed;fillStyle=solid;fillColor=#000000;strokeColor=none;fontSize=8;fontStyle=1;fontColor=#F0F0F0;" parent="1" vertex="1">
          <mxGeometry x="62" y="308" width="10" height="10" as="geometry" />
        </mxCell>
        <mxCell id="jRCGO-97fmJay-VYD4Cs-413" value="7" style="ellipse;whiteSpace=wrap;html=1;aspect=fixed;fillStyle=solid;fillColor=#000000;strokeColor=none;fontSize=8;fontStyle=1;fontColor=#F0F0F0;" parent="1" vertex="1">
          <mxGeometry x="192" y="308" width="10" height="10" as="geometry" />
        </mxCell>
        <mxCell id="jRCGO-97fmJay-VYD4Cs-414" value="8" style="ellipse;whiteSpace=wrap;html=1;aspect=fixed;fillStyle=solid;fillColor=#000000;strokeColor=none;fontSize=8;fontStyle=1;fontColor=#F0F0F0;" parent="1" vertex="1">
          <mxGeometry x="192" y="398" width="10" height="10" as="geometry" />
        </mxCell>
        <mxCell id="jRCGO-97fmJay-VYD4Cs-416" value="Review" style="rounded=0;whiteSpace=wrap;html=1;" parent="1" vertex="1">
          <mxGeometry x="500" y="240" width="90" height="40" as="geometry" />
        </mxCell>
        <mxCell id="jRCGO-97fmJay-VYD4Cs-415" value="9" style="ellipse;whiteSpace=wrap;html=1;aspect=fixed;fillStyle=solid;fillColor=#000000;strokeColor=none;fontSize=8;fontStyle=1;fontColor=#F0F0F0;" parent="1" vertex="1">
          <mxGeometry x="502" y="268" width="10" height="10" as="geometry" />
        </mxCell>
        <mxCell id="jRCGO-97fmJay-VYD4Cs-424" style="edgeStyle=orthogonalEdgeStyle;rounded=0;orthogonalLoop=1;jettySize=auto;html=1;entryX=0;entryY=0.5;entryDx=0;entryDy=0;" parent="1" source="jRCGO-97fmJay-VYD4Cs-359" target="jRCGO-97fmJay-VYD4Cs-363" edge="1">
          <mxGeometry relative="1" as="geometry" />
        </mxCell>
        <mxCell id="jRCGO-97fmJay-VYD4Cs-359" value="Queue" style="strokeWidth=1;html=1;shape=mxgraph.flowchart.direct_data;whiteSpace=wrap;spacingRight=15;" parent="1" vertex="1">
          <mxGeometry x="1095" y="1310" width="80" height="40" as="geometry" />
        </mxCell>
        <mxCell id="jRCGO-97fmJay-VYD4Cs-423" style="edgeStyle=orthogonalEdgeStyle;rounded=0;orthogonalLoop=1;jettySize=auto;html=1;entryX=0;entryY=0.5;entryDx=0;entryDy=0;entryPerimeter=0;" parent="1" source="jRCGO-97fmJay-VYD4Cs-371" target="jRCGO-97fmJay-VYD4Cs-359" edge="1">
          <mxGeometry relative="1" as="geometry" />
        </mxCell>
        <mxCell id="jRCGO-97fmJay-VYD4Cs-425" style="edgeStyle=orthogonalEdgeStyle;rounded=0;orthogonalLoop=1;jettySize=auto;html=1;entryX=0;entryY=0;entryDx=0;entryDy=22.5;entryPerimeter=0;startArrow=classic;startFill=1;dashed=1;dashPattern=8 8;" parent="1" source="jRCGO-97fmJay-VYD4Cs-360" target="jRCGO-97fmJay-VYD4Cs-361" edge="1">
          <mxGeometry relative="1" as="geometry">
            <Array as="points">
              <mxPoint x="1015" y="1242" />
              <mxPoint x="1109" y="1242" />
            </Array>
          </mxGeometry>
        </mxCell>
        <mxCell id="jRCGO-97fmJay-VYD4Cs-426" style="edgeStyle=orthogonalEdgeStyle;rounded=0;orthogonalLoop=1;jettySize=auto;html=1;entryX=0;entryY=0;entryDx=0;entryDy=45;entryPerimeter=0;startArrow=classic;startFill=1;dashed=1;dashPattern=8 8;" parent="1" source="jRCGO-97fmJay-VYD4Cs-371" target="jRCGO-97fmJay-VYD4Cs-361" edge="1">
          <mxGeometry relative="1" as="geometry">
            <Array as="points">
              <mxPoint x="1015" y="1265" />
            </Array>
          </mxGeometry>
        </mxCell>
        <mxCell id="jRCGO-97fmJay-VYD4Cs-428" style="edgeStyle=orthogonalEdgeStyle;rounded=0;orthogonalLoop=1;jettySize=auto;html=1;entryX=1;entryY=0;entryDx=0;entryDy=45;entryPerimeter=0;startArrow=classic;startFill=1;dashed=1;dashPattern=8 8;" parent="1" source="jRCGO-97fmJay-VYD4Cs-363" target="jRCGO-97fmJay-VYD4Cs-361" edge="1">
          <mxGeometry relative="1" as="geometry">
            <Array as="points">
              <mxPoint x="1255" y="1265" />
            </Array>
          </mxGeometry>
        </mxCell>
        <mxCell id="jRCGO-97fmJay-VYD4Cs-429" style="edgeStyle=orthogonalEdgeStyle;rounded=0;orthogonalLoop=1;jettySize=auto;html=1;entryX=1;entryY=0;entryDx=0;entryDy=22.5;entryPerimeter=0;startArrow=classic;startFill=1;dashed=1;dashPattern=8 8;" parent="1" source="jRCGO-97fmJay-VYD4Cs-387" target="jRCGO-97fmJay-VYD4Cs-361" edge="1">
          <mxGeometry relative="1" as="geometry">
            <Array as="points">
              <mxPoint x="1255" y="1242" />
              <mxPoint x="1161" y="1242" />
            </Array>
          </mxGeometry>
        </mxCell>
      </root>
    </mxGraphModel>
  </diagram>
</mxfile>
